# xmcd
#
# Track frame offsets:
# 150
# 34809
# 49177
# 71046
# 100359
# 118971
# 136434
# 161470
# 181841
# 207022
# 227634
# 244618
# 256451
#
# Disc length: 3890 seconds
#
# Revision: 0
# Processed by: cddbd v1.5.1PL0 Copyright (c) Steve Scherf et al.
# Submitted via: Audion 3.0.2 (http://www.panic.com/audion/)
#
DISCID=b70f300d
DTITLE=Julian Shaw - Man, Myth or Monkey
DYEAR=1900
DGENRE=
TTITLE0=Every Waking Hour
TTITLE1=The Perfect Game
TTITLE2=Leaves Only Blood
TTITLE3=Go Home
TTITLE4=Wicked
TTITLE5=Francois
TTITLE6=This Land
TTITLE7=Certainty Fails
TTITLE8=Man, Myth or Monkey
TTITLE9=The Tragedy of Kale
TTITLE10=Teflon Heart
TTITLE11=Remember
TTITLE12=Pora Susa
EXTD=
EXTT0=
EXTT1=
EXTT2=
EXTT3=
EXTT4=
EXTT5=
EXTT6=
EXTT7=
EXTT8=
EXTT9=
EXTT10=
EXTT11=
EXTT12=
PLAYORDER=
